<svg width="151" height="21" viewBox="0 0 151 21" fill="none" xmlns="http://www.w3.org/2000/svg">
<g id="logo">
<g id="letters">
<path id="Vector" d="M12.6183 18.3108C12.1144 19.137 11.3847 19.8018 10.5152 20.2269C9.46002 20.7389 8.2964 20.9875 7.12408 20.9513C5.91642 20.9724 4.71733 20.7447 3.60147 20.2824C2.61498 19.873 1.75724 19.205 1.11871 18.3488C0.488079 17.49 0.117968 16.4679 0.0525762 15.4045H3.99579C4.0637 16.12 4.38602 16.7875 4.90419 17.2855C5.18106 17.5409 5.506 17.7385 5.86006 17.8669C6.21411 17.9952 6.59019 18.0518 6.96635 18.0333C7.28856 18.0548 7.6118 18.0113 7.91688 17.9055C8.22196 17.7996 8.50264 17.6335 8.74226 17.417C8.9453 17.2062 9.10355 16.9565 9.20746 16.6829C9.31138 16.4093 9.35881 16.1175 9.34689 15.8251C9.36598 15.3013 9.18772 14.7895 8.84741 14.3909C8.49854 14.0038 8.07143 13.6952 7.59435 13.4855C7.08611 13.2576 6.38509 12.9947 5.4913 12.6968C4.51817 12.3863 3.56923 12.0046 2.65218 11.5547C1.9024 11.1665 1.25795 10.6022 0.774039 9.91027C0.258013 9.19173 0 8.25412 0 7.09745C0 5.50263 0.574444 4.24567 1.72333 3.32656C2.87222 2.40745 4.39206 1.94692 6.28286 1.94498C8.24571 1.94498 9.81034 2.41816 10.9768 3.36453C11.5503 3.82743 12.0223 4.40345 12.3635 5.05673C12.7048 5.71 12.9078 6.42654 12.96 7.16171H8.96425C8.87829 6.53406 8.58168 5.95423 8.12303 5.51724C7.60797 5.06872 6.93858 4.83825 6.25657 4.87464C5.65712 4.84693 5.06818 5.03909 4.60042 5.41501C4.38448 5.61124 4.2156 5.85368 4.10637 6.12424C3.99713 6.39481 3.95035 6.68653 3.96951 6.97769C3.95134 7.47456 4.12614 7.95919 4.4573 8.33007C4.80324 8.70545 5.22418 9.00398 5.69284 9.20634C6.36017 9.49705 7.04271 9.75154 7.73747 9.96869C8.72773 10.3024 9.69809 10.6925 10.6438 11.1371C11.4064 11.5222 12.061 12.0914 12.5482 12.7932C13.074 13.5293 13.3368 14.4932 13.3368 15.6849C13.3428 16.6095 13.0942 17.518 12.6183 18.3108Z" fill="white"/>
<path id="Vector_2" d="M28.7592 7.64949C29.7581 8.75359 30.2576 10.3046 30.2576 12.3025V20.7731H26.5802V12.7231C26.5802 11.5664 26.2823 10.6678 25.6864 10.0271C25.3703 9.70289 24.9888 9.44976 24.5673 9.28456C24.1457 9.11936 23.6938 9.04589 23.2416 9.06904C22.772 9.0484 22.3034 9.1293 21.8679 9.30623C21.4324 9.48317 21.0401 9.75196 20.7179 10.0943C20.087 10.7778 19.7716 11.7592 19.7716 13.0385V20.7672H16.0649V1.31406H19.7686V9.12162C20.1332 8.16593 20.8025 7.357 21.6731 6.81995C22.5955 6.2597 23.6581 5.97303 24.7371 5.99334C26.4195 5.99334 27.7602 6.54539 28.7592 7.64949Z" fill="white"/>
<path id="Vector_3" d="M44.0706 6.91343C45.1901 7.50171 46.1153 8.40155 46.7344 9.50427C47.405 10.722 47.7406 12.0957 47.7071 13.4854C47.7418 14.8716 47.406 16.2419 46.7344 17.4549C46.1087 18.5546 45.1827 19.4533 44.0647 20.0458C42.8776 20.6412 41.5679 20.9512 40.2398 20.9512C38.9117 20.9512 37.602 20.6412 36.4149 20.0458C35.2978 19.4531 34.3728 18.5544 33.7481 17.4549C33.0765 16.2419 32.7408 14.8716 32.7755 13.4854C32.7419 12.0957 33.0775 10.722 33.7481 9.50427C34.3678 8.40094 35.2941 7.50098 36.4149 6.91343C37.6042 6.3255 38.9131 6.01965 40.2398 6.01965C41.5665 6.01965 42.8754 6.3255 44.0647 6.91343H44.0706ZM37.6183 10.3192C36.8998 11.0455 36.5405 12.1009 36.5405 13.4854C36.5405 14.87 36.8998 15.9244 37.6183 16.6488C37.9634 16.9943 38.3732 17.2684 38.8242 17.4554C39.2753 17.6424 39.7588 17.7386 40.2471 17.7386C40.7354 17.7386 41.2189 17.6424 41.67 17.4554C42.1211 17.2684 42.5309 16.9943 42.8759 16.6488C43.5945 15.9205 43.9537 14.8641 43.9537 13.4796C43.9537 12.0951 43.5945 11.0397 42.8759 10.3134C42.5312 9.96716 42.1216 9.69246 41.6705 9.50501C41.2193 9.31757 40.7356 9.22108 40.2471 9.22108C39.7586 9.22108 39.2749 9.31757 38.8238 9.50501C38.3726 9.69246 37.963 9.96716 37.6183 10.3134V10.3192Z" fill="white"/>
<path id="Vector_4" d="M71.1882 6.20364L67.2713 20.7672H63.182L60.0421 10.1731L56.8291 20.7672H52.7398L48.8433 6.20364H52.5499L54.913 17.4549L58.1464 6.20364H62.0633L65.3231 17.4549L67.7153 6.20364H71.1882Z" fill="white"/>
<path id="Vector_5" d="M93.0336 2.41818V20.7673H89.3533V7.96498L84.6477 20.7673H81.4348L76.735 8.01755V20.7673H73.0226V2.41818H77.5178L83.0909 16.2194L88.5647 2.41818H93.0336Z" fill="white"/>
<path id="Vector_6" d="M119.558 17.0606L123.239 6.20364H127.182L121.802 20.7672H117.271L111.871 6.20364H115.84L119.558 17.0606Z" fill="white"/>
<path id="Vector_7" d="M129.443 0.56633C129.917 0.199212 130.499 0 131.099 0C131.698 0 132.281 0.199212 132.755 0.56633C132.961 0.748244 133.125 0.973494 133.234 1.22597C133.343 1.47844 133.395 1.7519 133.386 2.02678C133.393 2.29713 133.34 2.56568 133.231 2.81314C133.122 3.06061 132.959 3.28084 132.755 3.45802C132.281 3.82514 131.698 4.02435 131.099 4.02435C130.499 4.02435 129.917 3.82514 129.443 3.45802C129.238 3.28052 129.075 3.05982 128.966 2.81182C128.857 2.56382 128.804 2.2947 128.812 2.02386C128.803 1.74947 128.855 1.47657 128.965 1.22464C129.074 0.972704 129.237 0.747927 129.443 0.56633V0.56633ZM132.948 6.20367V20.7673H129.232V6.20367H132.948Z" fill="white"/>
<path id="Vector_8" d="M149.866 14.1952H139.193C139.245 15.4921 139.596 16.4473 140.244 17.0606C140.897 17.6758 141.766 18.0067 142.663 17.9807C143.427 18.01 144.18 17.7884 144.807 17.3498C145.372 16.9371 145.762 16.3273 145.899 15.6411H149.813C149.629 16.639 149.205 17.5772 148.578 18.375C147.932 19.1929 147.098 19.8423 146.147 20.2678C145.022 20.7537 143.804 20.9857 142.579 20.9473C141.355 20.909 140.153 20.6011 139.061 20.0458C137.968 19.4518 137.073 18.5513 136.485 17.455C135.848 16.2308 135.533 14.8649 135.568 13.4855C135.534 12.1024 135.849 10.733 136.485 9.50428C137.068 8.40421 137.964 7.50235 139.061 6.91345C140.232 6.30081 141.538 5.99339 142.858 6.01965C144.171 5.99029 145.469 6.29802 146.629 6.91345C147.677 7.48038 148.542 8.33197 149.127 9.36992C149.724 10.4613 150.026 11.6896 150.003 12.9334C149.995 13.3573 149.949 13.7796 149.866 14.1952V14.1952ZM145.332 9.85771C144.653 9.24256 143.763 8.91301 142.847 8.93763C141.92 8.91087 141.018 9.24011 140.326 9.85771C139.642 10.4711 139.265 11.3737 139.193 12.5654H146.264C146.313 11.3737 146.002 10.4711 145.332 9.85771Z" fill="white"/>
</g>
<g id="film">
<path id="film_2" d="M111.613 12.2675C111.613 10.5921 111.117 8.95442 110.186 7.56144C109.255 6.16845 107.932 5.08275 106.384 4.44163C104.837 3.80051 103.133 3.63277 101.49 3.95961C99.8472 4.28645 98.3378 5.0932 97.1532 6.27783C95.9686 7.46247 95.1618 8.97178 94.835 10.6149C94.5082 12.2581 94.6759 13.9612 95.317 15.509C95.9581 17.0568 97.0438 18.3797 98.4368 19.3105C99.8298 20.2413 101.467 20.7381 103.143 20.7381H111.613V19.3273H107.816C108.983 18.5555 109.94 17.5069 110.603 16.275C111.265 15.0431 111.613 13.6662 111.613 12.2675V12.2675ZM107.293 17.9807C106.955 18.2269 106.55 18.3672 106.132 18.3837C105.714 18.4003 105.3 18.2924 104.942 18.0737C104.585 17.855 104.301 17.5353 104.126 17.155C103.95 16.7748 103.891 16.351 103.957 15.9374C104.022 15.5237 104.209 15.1387 104.493 14.831C104.777 14.5234 105.146 14.3069 105.553 14.2089C105.96 14.1109 106.387 14.1358 106.78 14.2805C107.173 14.4252 107.514 14.6832 107.761 15.0219C108.09 15.4764 108.226 16.0432 108.139 16.5979C108.051 17.1526 107.747 17.6499 107.293 17.9807V17.9807ZM107.197 8.72732C107.596 8.59894 108.024 8.59169 108.426 8.70648C108.829 8.82127 109.189 9.05295 109.46 9.37221C109.731 9.69148 109.902 10.084 109.95 10.5001C109.998 10.9162 109.921 11.3372 109.73 11.7099C109.539 12.0825 109.241 12.3901 108.875 12.5937C108.509 12.7973 108.091 12.8878 107.674 12.8537C107.256 12.8196 106.858 12.6624 106.53 12.4021C106.202 12.1418 105.958 11.79 105.83 11.3912C105.658 10.8567 105.706 10.2758 105.962 9.77623C106.218 9.2767 106.663 8.89941 107.197 8.72732ZM103.152 5.22225C103.57 5.22225 103.98 5.34644 104.328 5.57913C104.676 5.81183 104.948 6.14256 105.108 6.52951C105.268 6.91646 105.31 7.34225 105.229 7.75303C105.147 8.16382 104.945 8.54114 104.649 8.8373C104.353 9.13346 103.975 9.33515 103.565 9.41686C103.154 9.49857 102.728 9.45663 102.341 9.29635C101.954 9.13607 101.624 8.86465 101.391 8.5164C101.158 8.16816 101.034 7.75873 101.034 7.3399C101.032 7.06145 101.085 6.78537 101.19 6.52749C101.295 6.26961 101.45 6.03502 101.646 5.83718C101.842 5.63933 102.075 5.48213 102.332 5.3746C102.589 5.26707 102.864 5.21133 103.143 5.21056L103.152 5.22225ZM96.4335 10.1001C96.5626 9.70165 96.8069 9.35038 97.1357 9.09076C97.4644 8.83115 97.8627 8.67485 98.2803 8.64164C98.6978 8.60843 99.1158 8.6998 99.4815 8.9042C99.8471 9.10859 100.144 9.41683 100.334 9.78992C100.525 10.163 100.6 10.5842 100.551 11.0002C100.502 11.4162 100.331 11.8083 100.059 12.127C99.7874 12.4457 99.4271 12.6766 99.024 12.7905C98.6209 12.9044 98.1931 12.8962 97.7947 12.7669C97.5286 12.6815 97.2822 12.5443 97.0694 12.3632C96.8566 12.1821 96.6818 11.9606 96.555 11.7117C96.4282 11.4627 96.352 11.1911 96.3306 10.9125C96.3093 10.6339 96.3433 10.3539 96.4306 10.0885L96.4335 10.1001ZM101.954 17.5251C101.708 17.8639 101.367 18.1221 100.974 18.2672C100.581 18.4122 100.154 18.4375 99.747 18.3399C99.3397 18.2423 98.9706 18.0261 98.6862 17.7187C98.4018 17.4113 98.215 17.0265 98.1492 16.613C98.0835 16.1994 98.1419 15.7756 98.3169 15.3952C98.492 15.0148 98.776 14.6949 99.1328 14.4758C99.4897 14.2567 99.9036 14.1484 100.322 14.1645C100.74 14.1806 101.145 14.3204 101.484 14.5662C101.938 14.8966 102.243 15.3936 102.331 15.9484C102.419 16.5031 102.283 17.0702 101.954 17.5251ZM102.439 12.2675C102.439 12.1275 102.48 11.9907 102.558 11.8744C102.636 11.7581 102.747 11.6675 102.876 11.6141C103.005 11.5607 103.148 11.5469 103.285 11.5744C103.422 11.6019 103.548 11.6695 103.647 11.7687C103.745 11.8678 103.812 11.994 103.839 12.1314C103.866 12.2687 103.852 12.4109 103.798 12.54C103.744 12.6691 103.653 12.7793 103.536 12.8566C103.42 12.9339 103.283 12.9749 103.143 12.9743C103.05 12.9743 102.958 12.956 102.873 12.9204C102.787 12.8849 102.709 12.8328 102.644 12.7671C102.579 12.7014 102.527 12.6235 102.492 12.5377C102.456 12.452 102.438 12.3601 102.439 12.2675V12.2675Z" fill="#6663FF"/>
</g>
</g>
</svg>
